HIERARCHY
ROOT Hips
{
	OFFSET 51.516201 -5.233934 86.583099
	CHANNELS 6 Xposition Yposition Zposition Xrotation Yrotation Zrotation
	JOINT spine
	{
		OFFSET 0.000000 -0.393701 6.846367
		CHANNELS 3 Xrotation Yrotation Zrotation
		JOINT spine1
		{
			OFFSET 0.000000 -0.000001 9.496208
			CHANNELS 3 Xrotation Yrotation Zrotation
			JOINT spine2
			{
				OFFSET 0.000000 -0.000001 9.099091
				CHANNELS 3 Xrotation Yrotation Zrotation
				JOINT Neck
				{
					OFFSET 0.000000 -1.113784 23.361206
					CHANNELS 3 Xrotation Yrotation Zrotation
					JOINT Head
					{
						OFFSET 0.000000 -0.000001 7.058014
						CHANNELS 3 Xrotation Yrotation Zrotation
						End Site
						{
							OFFSET 0.000000 5.634188 17.084396
						}
					}
				}
				JOINT RightShoulder
				{
					OFFSET -3.831360 0.533489 9.826309
					CHANNELS 3 Xrotation Yrotation Zrotation
					JOINT RightArm
					{
						OFFSET 0.000000 -0.000002 12.888092
						CHANNELS 3 Xrotation Yrotation Zrotation
						JOINT RightArmRoll
						{
							OFFSET 0.000000 -0.000001 6.506165
							CHANNELS 3 Xrotation Yrotation Zrotation
							JOINT RightForeArm
							{
								OFFSET 0.000000 -0.000003 18.950104
								CHANNELS 3 Xrotation Yrotation Zrotation
								JOINT RightForeArmRoll
								{
									OFFSET 0.000000 -0.000001 7.300919
									CHANNELS 3 Xrotation Yrotation Zrotation
									JOINT RightHand
									{
										OFFSET 0.000000 -0.000002 14.651398
										CHANNELS 3 Xrotation Yrotation Zrotation
										End Site
										{
											OFFSET 0.000000 0.000000 0.100006
										}
									}
								}
							}
						}
					}
				}
				JOINT LeftShoulder
				{
					OFFSET 3.831360 0.533489 9.826309
					CHANNELS 3 Xrotation Yrotation Zrotation
					JOINT LeftArm
					{
						OFFSET 0.000000 -0.000002 12.888092
						CHANNELS 3 Xrotation Yrotation Zrotation
						JOINT LeftArmRoll
						{
							OFFSET 0.000000 -0.000001 6.506165
							CHANNELS 3 Xrotation Yrotation Zrotation
							JOINT LeftForeArm
							{
								OFFSET 0.000000 -0.000003 18.950104
								CHANNELS 3 Xrotation Yrotation Zrotation
								JOINT LeftForeArmRoll
								{
									OFFSET 0.000000 -0.000001 7.300919
									CHANNELS 3 Xrotation Yrotation Zrotation
									JOINT LeftHand
									{
										OFFSET 0.000000 -0.000002 14.651398
										CHANNELS 3 Xrotation Yrotation Zrotation
										End Site
										{
											OFFSET 0.000000 0.000000 0.100006
										}
									}
								}
							}
						}
					}
				}
			}
		}
	}
	JOINT RightUpLeg
	{
		OFFSET -6.068371 0.933477 -1.112778
		CHANNELS 3 Xrotation Yrotation Zrotation
		JOINT RightUpLegRoll
		{
			OFFSET 0.000000 -0.000003 17.179596
			CHANNELS 3 Xrotation Yrotation Zrotation
			JOINT RightLeg
			{
				OFFSET 0.000000 0.000003 -21.274300
				CHANNELS 3 Xrotation Yrotation Zrotation
				JOINT RightLegRoll
				{
					OFFSET 0.000000 -0.000003 21.343903
					CHANNELS 3 Xrotation Yrotation Zrotation
					JOINT RightFoot
					{
						OFFSET 0.000000 -0.000003 17.765198
						CHANNELS 3 Xrotation Yrotation Zrotation
						JOINT RightToeBase
						{
							OFFSET 0.000000 -0.000002 14.850792
							CHANNELS 3 Xrotation Yrotation Zrotation
							End Site
							{
								OFFSET 0.006294 0.829004 7.192123
							}
						}
					}
				}
			}
		}
	}
	JOINT LeftUpLeg
	{
		OFFSET 6.068371 0.933477 -1.112778
		CHANNELS 3 Xrotation Yrotation Zrotation
		JOINT LeftUpLegRoll
		{
			OFFSET 0.000000 -0.000003 17.179703
			CHANNELS 3 Xrotation Yrotation Zrotation
			JOINT LeftLeg
			{
				OFFSET 0.000000 -0.000003 21.274200
				CHANNELS 3 Xrotation Yrotation Zrotation
				JOINT LeftLegRoll
				{
					OFFSET 0.000000 -0.000004 21.541199
					CHANNELS 3 Xrotation Yrotation Zrotation
					JOINT LeftFoot
					{
						OFFSET 0.000000 -0.000003 17.567902
						CHANNELS 3 Xrotation Yrotation Zrotation
						JOINT LeftToeBase
						{
							OFFSET 0.000000 -0.000002 14.850800
							CHANNELS 3 Xrotation Yrotation Zrotation
							End Site
							{
								OFFSET -0.028210 0.829004 7.192123
							}
						}
					}
				}
			}
		}
	}
}
MOTION
Frames: 7
Frame Time: 0.041667
49.487904 -3.161565 86.718002 -0.940803 -4.603661 10.058382 1.265017 -2.700883 0.291926 6.554857 -5.388853 0.671010 8.202940 -5.380438 0.735699 36.049318 39.867022 -15.540422 14.862738 -30.389315 -3.546360 -0.094389 -11.828388 8.357080 -92.070260 -170.872810 -69.858560 -0.000000 -0.000001 -0.000004 2.657035 -7.760570 -0.355347 0.000004 0.000002 -2.996931 -5.000209 -7.999245 0.000133 -34.032463 65.119379 39.615456 -162.874713 101.692023 219.619364 -0.000002 -0.000021 0.000003 105.997781 -22.912474 35.487914 0.000001 0.000003 3.000420 -5.000206 7.999042 -0.000136 -15.062939 -175.498487 0.035693 -179.999991 0.000005 -1.110994 153.466605 -3.960504 -1.344165 0.000002 0.000000 0.742127 74.648544 7.830849 -1.153989 25.456952 -7.355613 0.000000 -11.534155 182.233040 4.548434 -0.000002 -0.000004 -1.004069 -18.608371 0.154475 0.873698 -0.000004 -0.000002 -0.356053 69.679718 -5.501028 -5.746673 25.456957 7.355615 -0.000001 
49.499699 -3.160801 86.715309 -0.960763 -4.572161 10.003805 1.251260 -2.699517 0.295414 6.527456 -5.386107 0.677310 8.175538 -5.377617 0.741966 35.997033 39.742347 -15.447067 14.836925 -30.222767 -3.535505 -0.141285 -11.970266 8.243134 -91.890380 -170.741970 -69.968171 0.000001 0.000000 -0.000002 3.039391 -7.903927 -0.344451 0.000004 0.000002 -2.996963 -5.000208 -7.999243 0.000133 -33.844882 65.077510 39.406049 -159.825252 101.811517 216.353482 -0.000003 -0.000018 -0.000001 105.692902 -22.746092 35.003832 -0.000000 0.000003 3.000412 -5.000204 7.999040 -0.000137 -15.035973 -175.530766 0.024036 -179.999991 0.000005 -1.113002 153.489145 -3.961279 -1.342610 0.000002 0.000001 0.741510 74.641591 7.829809 -1.149646 25.456953 -7.355614 0.000000 -11.527098 182.200760 4.525280 -0.000001 -0.000005 -1.004010 -18.653373 0.154641 0.875301 -0.000004 -0.000002 -0.357376 69.713186 -5.504017 -5.739654 25.456957 7.355612 0.000000 
49.526901 -3.197533 86.725403 -0.981453 -4.541067 9.949487 1.237703 -2.698002 0.298761 6.500433 -5.383085 0.683322 8.148504 -5.374523 0.747940 35.942412 39.616426 -15.352756 14.812640 -30.054086 -3.524663 -0.189497 -12.113635 8.126922 -91.709606 -170.611609 -70.077884 0.000001 0.000002 -0.000007 3.438693 -8.044862 -0.331788 0.000005 0.000003 -2.997193 -5.000207 -7.999241 0.000133 -33.655409 65.034199 39.194515 -156.773605 101.968557 213.075811 -0.000002 -0.000022 0.000003 105.384403 -22.572223 34.508557 0.000001 0.000003 3.000410 -5.000206 7.999045 -0.000137 -15.008215 -175.563046 0.012776 -179.999991 0.000005 -1.113999 153.511384 -3.962043 -1.342070 0.000002 0.000001 0.740900 74.634939 7.828657 -1.145037 25.456957 -7.355615 0.000000 -11.519357 182.170448 4.502071 -0.000002 -0.000004 -1.004000 -18.699574 0.154672 0.876902 -0.000004 -0.000002 -0.358775 69.748744 -5.507028 -5.732626 25.456957 7.355613 -0.000000 
49.535900 -3.212284 86.724411 -1.002753 -4.510032 9.895400 1.224257 -2.696365 0.301985 6.473628 -5.379802 0.689093 8.121701 -5.371163 0.753674 35.886234 39.488588 -15.257659 14.788898 -29.882989 -3.514029 -0.238591 -12.259500 8.008924 -91.528462 -170.481713 -70.189251 0.000001 -0.000002 -0.000006 3.851159 -8.183803 -0.317283 0.000005 0.000003 -2.997590 -5.000209 -7.999243 0.000131 -33.463146 64.988977 38.979818 -153.745509 102.162917 209.815912 -0.000003 -0.000020 0.000002 105.072659 -22.391720 34.004674 0.000001 0.000003 3.000411 -5.000205 7.999043 -0.000137 -14.979554 -175.595312 0.001476 -179.999991 0.000005 -1.115993 153.533527 -3.962802 -1.340539 0.000002 0.000000 0.740298 74.628471 7.827443 -1.140250 25.456957 -7.355614 0.000000 -11.511209 182.139166 4.479060 -0.000003 -0.000004 -1.004029 -18.746969 0.154584 0.878521 -0.000004 -0.000002 -0.360239 69.786187 -5.510063 -5.725609 25.456957 7.355614 -0.000001 
49.500500 -3.191793 86.717598 -1.024541 -4.478698 9.841396 1.210848 -2.694609 0.305107 6.446912 -5.376289 0.694670 8.094972 -5.367592 0.759204 35.829356 39.358333 -15.162094 14.764849 -29.709178 -3.504007 -0.288141 -12.409047 7.889587 -91.347517 -170.352254 -70.303929 -0.000002 0.000000 -0.000003 4.273048 -8.321143 -0.300897 0.000003 0.000002 -2.998102 -5.000209 -7.999238 0.000132 -33.267488 64.941541 38.761276 -150.765552 102.393797 206.601871 -0.000001 -0.000020 0.000002 104.757678 -22.205807 33.493800 0.000001 0.000007 3.000410 -5.000204 7.999045 -0.000138 -14.950102 -175.627564 -0.010314 -179.999991 0.000005 -1.118002 153.555767 -3.963566 -1.339999 0.000002 0.000000 0.739703 74.622084 7.826154 -1.135282 25.456953 -7.355614 0.000000 -11.502970 182.107842 4.455697 -0.000004 -0.000004 -1.004049 -18.795673 0.154391 0.880175 -0.000004 -0.000002 -0.361761 69.825488 -5.513047 -5.718692 25.456957 7.355613 -0.000001 
49.528095 -3.209223 86.722404 -1.046683 -4.446712 9.787409 1.197405 -2.692742 0.308162 6.420103 -5.372565 0.700091 8.068165 -5.363807 0.764582 35.772730 39.224844 -15.066298 14.739446 -29.532485 -3.494885 -0.337710 -12.563290 7.769387 -91.167418 -170.222972 -70.423451 -0.000001 0.000002 -0.000004 4.700580 -8.457295 -0.282600 0.000003 0.000000 -2.998688 -5.000207 -7.999242 0.000131 -33.067490 64.891360 38.537812 -147.855482 102.659376 203.459000 -0.000002 -0.000020 0.000002 104.439828 -22.015325 32.978814 0.000001 0.000005 3.000407 -5.000205 7.999041 -0.000135 -14.920133 -175.660799 -0.022826 -179.999991 0.000005 -1.118999 153.578347 -3.963447 -1.337998 0.000003 0.000000 0.739121 74.615602 7.824909 -1.130300 25.456953 -7.355615 0.000000 -11.494819 182.075563 4.431828 -0.000002 -0.000004 -1.004030 -18.845672 0.154108 0.881881 -0.000003 -0.000002 -0.363334 69.866237 -5.515938 -5.711984 25.456957 7.355613 -0.000001 
49.576401 -3.254597 86.726006 -1.069052 -4.413705 9.733337 1.183857 -2.690777 0.311164 6.393081 -5.368655 0.705408 8.041130 -5.359834 0.769850 35.716948 39.087622 -14.970351 14.711956 -29.352683 -3.486771 -0.386867 -12.723419 7.648782 -90.988727 -170.093826 -70.549482 0.000001 -0.000001 -0.000004 5.129997 -8.592631 -0.262408 0.000003 0.000001 -2.999300 -5.000204 -7.999246 0.000136 -32.862352 64.838153 38.308571 -145.033043 102.956796 200.408214 0.000003 -0.000022 0.000003 104.118413 -21.822014 32.459733 0.000001 0.000005 3.000412 -5.000205 7.999044 -0.000139 -14.889515 -175.696918 -0.035982 -179.999991 0.000005 -1.121006 153.601406 -3.963330 -1.336952 0.000003 0.000000 0.738551 74.609080 7.823576 -1.125226 25.456955 -7.355615 0.000000 -11.487267 182.041330 4.407298 -0.000003 -0.000005 -1.003960 -18.897171 0.153750 0.883658 -0.000003 -0.000002 -0.364947 69.908318 -5.518762 -5.705494 25.456953 7.355613 -0.000000 
